<svg width="145" height="110" fill="none" xmlns="http://www.w3.org/2000/svg"><path d="M143.71 55.14c4.832 17.8-4.264 29.385-21.318 43.23-6.253 5.369-23.99 14.976-44.91 10.455-26.15-5.651-15.633-17.801-34.392-34.755-18.76-16.953-1.706-57.076 18.76-65.835 20.464-8.76 44.34-12.998 60.542 0 16.201 12.997 16.486 29.103 21.318 46.904z" fill="#F4FBFF"/><rect y="44.844" width="85.42" height="55.036" rx="5" transform="rotate(-15 0 44.844)" fill="#FFC7DB"/><path fill="#FF689E" d="M7.864 74.193l82.51-22.108 3.264 12.182-82.51 22.108z"/><rect x="17.579" y="12" width="85.42" height="55.036" rx="5" fill="#AAF0D1"/><rect x="26.18" y="20.026" width="11.465" height="11.465" rx="2" fill="#FF689E"/><rect x="26.18" y="43.531" width="64.782" height="4.586" rx="2" fill="#fff"/><rect x="26.18" y="53.276" width="13.185" height="4.586" rx="2" fill="#fff"/><rect x="46.817" y="53.276" width="13.185" height="4.586" rx="2" fill="#fff"/></svg>