<svg width="145" height="110" viewBox="0 0 145 110" fill="none" xmlns="http://www.w3.org/2000/svg">
<path d="M143.71 55.1391C148.542 72.9401 139.446 84.5249 122.392 98.3702C116.139 103.739 98.4021 113.346 77.4823 108.825C51.3325 103.174 61.8495 91.0237 43.0898 74.0704C24.3302 57.117 41.3844 16.994 61.8495 8.23479C82.3145 -0.524445 106.19 -4.76278 122.392 8.23479C138.593 21.2324 138.878 37.3381 143.71 55.1391Z" fill="#F4FBFF"/>
<rect y="44.8442" width="85.4201" height="55.0358" rx="5" transform="rotate(-15 0 44.8442)" fill="#FFC7DB"/>
<rect x="7.86426" y="74.1934" width="85.4201" height="12.6124" transform="rotate(-15 7.86426 74.1934)" fill="#FF689E"/>
<rect x="17.5791" y="12" width="85.4201" height="55.0358" rx="5" fill="#AAF0D1"/>
<rect x="26.1797" y="20.0264" width="11.4652" height="11.4652" rx="2" fill="#FF689E"/>
<rect x="26.1797" y="43.5308" width="64.7817" height="4.58632" rx="2" fill="white"/>
<rect x="26.1797" y="53.2764" width="13.185" height="4.58607" rx="2" fill="white"/>
<rect x="46.8174" y="53.2764" width="13.185" height="4.58607" rx="2" fill="white"/>
</svg>
