<svg width="145" height="110" fill="none" xmlns="http://www.w3.org/2000/svg"><path d="M143.71 55.14c4.832 17.8-4.264 29.385-21.318 43.23-6.253 5.369-23.99 14.976-44.91 10.455-26.15-5.651-15.633-17.801-34.392-34.755-18.76-16.953-1.706-57.076 18.76-65.835 20.464-8.76 44.34-12.998 60.542 0 16.201 12.997 16.486 29.103 21.318 46.904z" fill="#F4FBFF"/><rect y="28.388" width="74.059" height="14.219" rx="5" fill="#FFC7DB"/><rect x="5.93" y="37.899" width="55.257" height="36.555" rx="5" transform="rotate(-20 5.93 37.899)" fill="#FF689E"/><circle cx="38.319" cy="46.002" r="12.285" fill="#FFC7DB"/><rect x="50.721" y="28.892" width="3.836" height="19.508" rx="1" transform="rotate(-20 50.721 28.892)" fill="#FFC7DB"/><rect y="39.285" width="77.021" height="50.953" rx="3" fill="#AAF0D1"/><path d="M0 33.72v8.887l6.517-3.258C2.074 39.349.494 36.78 0 33.72z" fill="#AAF0D1"/><path d="M59.247 64.53a8.887 8.887 0 018.887-8.887h6.85a5 5 0 015 5v7.774a5 5 0 01-5 5h-6.85a8.887 8.887 0 01-8.887-8.887z" fill="#FFC7DB"/><circle cx="68.134" cy="64.529" r="4.74" fill="#FF689E"/><circle cx="105" cy="28" r="14" fill="#FFC7DB"/><circle cx="104" cy="30" r="14" fill="#FF689E"/><path d="M100.289 34.194c-.22.283-.425.493-.616.63-.19.137-.412.205-.666.205-.254 0-.381-.085-.381-.256 0-.142.066-.305.198-.49.136-.191.239-.33.307-.418.069-.093.218-.281.447-.564 4.561-5.625 6.97-8.587 7.229-8.885.41-.551.872-.827 1.384-.827.24 0 .359.078.359.234 0 .215-.234.63-.703 1.245l-1.355 1.685-4.468 5.405-1.735 2.036zm1.362-5.61c-.234.17-.486.308-.755.41a2.357 2.357 0 01-.827.147 2.51 2.51 0 01-.784-.118 1.777 1.777 0 01-.615-.366c-.361-.346-.542-.86-.542-1.538 0-.82.315-1.601.945-2.344.659-.776 1.418-1.164 2.278-1.164.864 0 1.438.376 1.721 1.128.097.259.146.542.146.85 0 .307-.039.598-.117.871-.073.273-.178.54-.315.798a4.07 4.07 0 01-.498.733c-.19.224-.403.422-.637.593zm-1.604-.249c.254 0 .522-.183.806-.55.415-.527.703-1.174.864-1.94.049-.235.073-.427.073-.579a2.4 2.4 0 00-.022-.366.799.799 0 00-.066-.256c-.083-.152-.2-.227-.351-.227a.692.692 0 00-.418.139 1.96 1.96 0 00-.388.373c-.127.156-.252.34-.374.55a5.201 5.201 0 00-.33.659 4.033 4.033 0 00-.307 1.486c0 .474.171.711.513.711zm4.087 5.625a2.321 2.321 0 01-.147-.842c0-.308.037-.599.11-.872.078-.278.188-.547.33-.806a4.33 4.33 0 01.505-.732c.195-.23.413-.43.652-.6.518-.377 1.06-.564 1.626-.564.864 0 1.438.375 1.721 1.127.098.26.147.542.147.85 0 .308-.039.598-.118.872-.073.273-.178.54-.314.798a4.024 4.024 0 01-.499.732c-.19.225-.402.423-.637.594-.508.37-1.035.556-1.582.556-.923 0-1.521-.37-1.794-1.113zm1.772.308c.254 0 .523-.184.806-.55.415-.527.703-1.174.864-1.94.049-.235.073-.428.073-.58 0-.15-.007-.273-.022-.366a.775.775 0 00-.065-.256c-.083-.151-.201-.227-.352-.227a.694.694 0 00-.418.14 1.988 1.988 0 00-.388.373 4.27 4.27 0 00-.373.55 5.244 5.244 0 00-.33.658 4.033 4.033 0 00-.307 1.487c0 .474.17.71.512.71z" fill="#fff"/></svg>