<svg width="162" height="90" fill="none" xmlns="http://www.w3.org/2000/svg"><mask id="a" maskUnits="userSpaceOnUse" x="50" y="0" width="90" height="90"><path d="M138.944 45.114c3.954 14.564-3.488 24.043-17.442 35.37-5.116 4.393-19.628 12.253-36.744 8.554-21.395-4.623-12.79-14.564-28.14-28.435-15.348-13.87-1.394-46.699 15.35-53.865 16.744-7.167 36.279-10.635 49.534 0 13.256 10.634 13.489 23.811 17.442 38.376z" fill="#F4F9FC"/></mask><g mask="url(#a)"><path d="M138.944 45.114c3.954 14.564-3.488 24.043-17.442 35.37-5.116 4.393-19.628 12.253-36.744 8.554-21.395-4.623-12.79-14.564-28.14-28.435-15.348-13.87-1.394-46.699 15.35-53.865 16.744-7.167 36.279-10.635 49.534 0 13.256 10.634 13.489 23.811 17.442 38.376z" fill="#F4FBFF"/></g><path d="M17.177 73.38c-3.936 0-6.932-1.218-8.989-3.655-2.03-2.463-3.046-6.056-3.046-10.779V57.69c0-3.073.52-6.615 1.561-10.627 1.067-4.011 2.31-7.591 3.732-10.74a56.916 56.916 0 015.028-8.874c1.93-2.742 4.037-5.129 6.322-7.16 4.926-4.342 10.017-6.513 15.273-6.513 5.56 0 9.166 2.717 10.816 8.15.559 1.829.838 3.568.838 5.219 0 1.65-.089 3.541-.267 5.674-.152 2.108-.672 4.875-1.561 8.303a59.454 59.454 0 01-3.504 9.826 58.536 58.536 0 01-5.028 8.798c-1.878 2.742-3.948 5.129-6.207 7.16-4.85 4.317-9.84 6.475-14.968 6.475zm23.956-48.292c0-4.24-1.613-6.36-4.837-6.36-3.047 0-6.411 2.323-10.093 6.97-3.428 4.366-6.424 9.8-8.988 16.3-2.666 6.754-4.202 13.013-4.609 18.776-.152 2.387.19 4.266 1.029 5.637.838 1.346 1.98 2.019 3.428 2.019a8.265 8.265 0 004.15-1.105c1.296-.761 2.59-1.803 3.886-3.123 1.32-1.32 2.602-2.869 3.846-4.646a67.01 67.01 0 003.58-5.828 72.519 72.519 0 003.162-6.626 80.61 80.61 0 002.628-7.008c1.878-5.916 2.818-10.664 2.818-14.244v-.762zm16.11 47.303c-.812.634-1.574.952-2.285.952-.685 0-1.028-.343-1.028-1.029 0-.507.152-1.117.457-1.828 4.113-9.572 6.843-16.11 8.188-19.614 5.053-13.685 7.986-22.547 8.798-26.584-2.031 2.158-4.697 3.542-7.998 4.151-.813.153-1.498.229-2.057.229-.558 0-1.04-.089-1.447-.267a2.96 2.96 0 01-.952-.685c-.482-.533-.724-1.117-.724-1.752s.203-1.13.61-1.485c.406-.381 1.066-.775 1.98-1.181a14.81 14.81 0 002.742-1.562 40.792 40.792 0 002.666-2.018l2.59-2.171c2.945-2.59 4.862-3.885 5.751-3.885.914 0 1.714.152 2.4.457a6.27 6.27 0 011.79 1.18c1.142 1.093 1.688 2.273 1.637 3.543-.05 1.244-.292 2.844-.723 4.799-.407 1.955-.978 4.113-1.714 6.474a153.4 153.4 0 01-2.514 7.503 178.055 178.055 0 01-3.2 8.112c-6.118 14.752-11.107 23.64-14.967 26.66z" fill="#FF689E"/><path d="M117.457 50.707c-1.076 0-1.614-.415-1.614-1.246 0-.755.274-1.463.821-2.124.982-1.19 1.746-1.765 2.294-1.728h13.084c.831 0 1.246.378 1.246 1.133 0 .793-.274 1.52-.821 2.18-.963 1.19-1.794 1.785-2.492 1.785h-12.518zm14.793 12.8c-.83 0-1.246-.547-1.246-1.642 0-1.208.52-2.114 1.558-2.718l19.683-11.47-20.221-11.753c-.661-.378-.991-.765-.991-1.161 0-.416.066-.737.198-.963a2.402 2.402 0 012.124-1.218c.604 0 1.133.132 1.586.396l22.854 12.603c1.53.906 2.294 1.614 2.294 2.124s-.576 1.067-1.727 1.671l-25.12 13.849c-.359.188-.689.283-.992.283z" fill="#AAF0D1"/></svg>