<svg width="145" height="110" viewBox="0 0 145 110" fill="none" xmlns="http://www.w3.org/2000/svg">
<path d="M143.71 55.1391C148.542 72.9401 139.446 84.5249 122.392 98.3702C116.139 103.739 98.4021 113.346 77.4823 108.825C51.3325 103.174 61.8495 91.0237 43.0898 74.0704C24.3302 57.117 41.3844 16.994 61.8495 8.23479C82.3145 -0.524445 106.19 -4.76278 122.392 8.23479C138.593 21.2324 138.878 37.3381 143.71 55.1391Z" fill="#F4FBFF"/>
<rect y="76.6802" width="95.7139" height="37.2221" rx="3" transform="rotate(-45 0 76.6802)" fill="#FFC7DB"/>
<mask id="mask0" mask-type="alpha" maskUnits="userSpaceOnUse" x="24" y="33" width="46" height="46">
<circle cx="46.9994" cy="56" r="15.9523" transform="rotate(-45 46.9994 56)" fill="#FFC7DB"/>
</mask>
<g mask="url(#mask0)">
<circle cx="46.9994" cy="56" r="15.9523" transform="rotate(-45 46.9994 56)" fill="#AAF0D1"/>
<path d="M38.4789 58.0696L42.1921 78.9207C42.4755 80.5123 44.4322 81.1274 45.5753 79.9843L62.7132 62.8464C63.8564 61.7033 63.2412 59.7466 61.6497 59.4632L40.7985 55.7499C39.429 55.5061 38.235 56.7001 38.4789 58.0696Z" fill="#FF689E"/>
<path d="M49.9686 51.1459L53.0785 68.0474C53.3701 69.6322 55.3202 70.2391 56.4597 69.0997L70.2512 55.3081C71.3907 54.1687 70.7838 52.2185 69.199 51.9269L52.2975 48.817C50.9198 48.5635 49.7151 49.7683 49.9686 51.1459Z" fill="#FF689E"/>
</g>
<rect x="3.75977" y="76.6802" width="5.31744" height="31.9046" rx="2" transform="rotate(-45 3.75977 76.6802)" fill="white"/>
<rect x="7.52002" y="80.4399" width="5.31744" height="9.57139" rx="2" transform="rotate(-135 7.52002 80.4399)" fill="white"/>
<rect x="26.3198" y="99.2402" width="5.31744" height="9.57139" rx="2" transform="rotate(-135 26.3198 99.2402)" fill="white"/>
<rect x="64.6724" y="23.2876" width="5.31744" height="9.57139" rx="2" transform="rotate(-135 64.6724 23.2876)" fill="white"/>
<rect x="83.4722" y="42.0884" width="5.31744" height="9.57139" rx="2" transform="rotate(-135 83.4722 42.0884)" fill="white"/>
<rect x="63.9204" y="16.52" width="5.31744" height="31.9046" rx="2" transform="rotate(-45 63.9204 16.52)" fill="white"/>
<rect x="26.3198" y="9" width="95.7139" height="37.2221" rx="3" transform="rotate(45 26.3198 9)" fill="#AAF0D1"/>
<mask id="mask1" mask-type="alpha" maskUnits="userSpaceOnUse" x="24" y="33" width="46" height="46">
<circle cx="47" cy="55.9994" r="15.9523" transform="rotate(45 47 55.9994)" fill="#FFC7DB"/>
</mask>
<g mask="url(#mask1)">
<circle cx="47" cy="55.9994" r="15.9523" transform="rotate(45 47 55.9994)" fill="#FFC7DB"/>
<path d="M44.9304 47.4789L24.0793 51.1921C22.4877 51.4755 21.8726 53.4322 23.0157 54.5753L40.1536 71.7132C41.2967 72.8564 43.2534 72.2412 43.5368 70.6497L47.2501 49.7985C47.4939 48.429 46.2999 47.235 44.9304 47.4789Z" fill="#FF689E"/>
<path d="M51.8541 58.9686L34.9526 62.0785C33.3678 62.3701 32.7609 64.3202 33.9003 65.4597L47.6919 79.2512C48.8313 80.3907 50.7815 79.7838 51.0731 78.199L54.183 61.2975C54.4365 59.9198 53.2317 58.7151 51.8541 58.9686Z" fill="#FF689E"/>
</g>
<rect x="26.3198" y="12.7598" width="5.31744" height="31.9046" rx="2" transform="rotate(45 26.3198 12.7598)" fill="white"/>
<rect x="22.5605" y="16.52" width="5.31744" height="9.57139" rx="2" transform="rotate(-45 22.5605 16.52)" fill="white"/>
<rect x="3.75977" y="35.3198" width="5.31744" height="9.57139" rx="2" transform="rotate(-45 3.75977 35.3198)" fill="white"/>
<rect x="79.7124" y="73.6724" width="5.31744" height="9.57139" rx="2" transform="rotate(-45 79.7124 73.6724)" fill="white"/>
<rect x="60.9116" y="92.4722" width="5.31744" height="9.57139" rx="2" transform="rotate(-45 60.9116 92.4722)" fill="white"/>
<rect x="86.48" y="72.9204" width="5.31744" height="31.9046" rx="2" transform="rotate(45 86.48 72.9204)" fill="white"/>
</svg>
