<svg width="145" height="110" fill="none" xmlns="http://www.w3.org/2000/svg"><path d="M143.71 55.14c4.832 17.8-4.264 29.385-21.318 43.23-6.253 5.369-23.99 14.976-44.91 10.455-26.15-5.651-15.633-17.801-34.392-34.755-18.76-16.953-1.706-57.076 18.76-65.835 20.464-8.76 44.34-12.998 60.542 0 16.201 12.997 16.486 29.103 21.318 46.904z" fill="#F4FBFF"/><rect y="76.68" width="95.714" height="37.222" rx="3" transform="rotate(-45 0 76.68)" fill="#FFC7DB"/><mask id="a" maskUnits="userSpaceOnUse" x="24" y="33" width="46" height="46"><circle cx="46.999" cy="56" r="15.952" transform="rotate(-45 47 56)" fill="#FFC7DB"/></mask><g mask="url(#a)"><circle cx="46.999" cy="56" r="15.952" transform="rotate(-45 47 56)" fill="#AAF0D1"/><path d="M38.479 58.07l3.713 20.85c.283 1.592 2.24 2.207 3.383 1.064l17.138-17.138c1.143-1.143.528-3.1-1.063-3.383L40.798 55.75a2 2 0 00-2.32 2.32z" fill="#FF689E"/><path d="M49.969 51.146l3.11 16.901c.291 1.585 2.241 2.192 3.38 1.053l13.792-13.792c1.14-1.14.533-3.09-1.052-3.381l-16.901-3.11a2 2 0 00-2.33 2.329z" fill="#FF689E"/></g><rect x="3.76" y="76.68" width="5.317" height="31.905" rx="2" transform="rotate(-45 3.76 76.68)" fill="#fff"/><rect x="7.52" y="80.44" width="5.317" height="9.571" rx="2" transform="rotate(-135 7.52 80.44)" fill="#fff"/><rect x="26.32" y="99.24" width="5.317" height="9.571" rx="2" transform="rotate(-135 26.32 99.24)" fill="#fff"/><rect x="64.672" y="23.288" width="5.317" height="9.571" rx="2" transform="rotate(-135 64.672 23.288)" fill="#fff"/><rect x="83.472" y="42.088" width="5.317" height="9.571" rx="2" transform="rotate(-135 83.472 42.088)" fill="#fff"/><rect x="63.92" y="16.52" width="5.317" height="31.905" rx="2" transform="rotate(-45 63.92 16.52)" fill="#fff"/><rect x="26.32" y="9" width="95.714" height="37.222" rx="3" transform="rotate(45 26.32 9)" fill="#AAF0D1"/><mask id="b" maskUnits="userSpaceOnUse" x="24" y="33" width="46" height="46"><circle cx="47" cy="55.999" r="15.952" transform="rotate(45 47 56)" fill="#FFC7DB"/></mask><g mask="url(#b)"><circle cx="47" cy="55.999" r="15.952" transform="rotate(45 47 56)" fill="#FFC7DB"/><path d="M44.93 47.479l-20.85 3.713c-1.592.283-2.207 2.24-1.064 3.383l17.138 17.138c1.143 1.143 3.1.528 3.383-1.063l3.713-20.852a2 2 0 00-2.32-2.32z" fill="#FF689E"/><path d="M51.854 58.969l-16.901 3.11c-1.585.291-2.192 2.241-1.053 3.38l13.792 13.792c1.14 1.14 3.09.533 3.381-1.052l3.11-16.901a2 2 0 00-2.329-2.33z" fill="#FF689E"/></g><rect x="26.32" y="12.76" width="5.317" height="31.905" rx="2" transform="rotate(45 26.32 12.76)" fill="#fff"/><rect x="22.561" y="16.52" width="5.317" height="9.571" rx="2" transform="rotate(-45 22.56 16.52)" fill="#fff"/><rect x="3.76" y="35.32" width="5.317" height="9.571" rx="2" transform="rotate(-45 3.76 35.32)" fill="#fff"/><rect x="79.712" y="73.672" width="5.317" height="9.571" rx="2" transform="rotate(-45 79.712 73.672)" fill="#fff"/><rect x="60.912" y="92.472" width="5.317" height="9.571" rx="2" transform="rotate(-45 60.912 92.472)" fill="#fff"/><rect x="86.48" y="72.92" width="5.317" height="31.905" rx="2" transform="rotate(45 86.48 72.92)" fill="#fff"/></svg>