<svg width="145" height="110" viewBox="0 0 145 110" fill="none" xmlns="http://www.w3.org/2000/svg">
<path d="M143.71 55.1391C148.542 72.9401 139.446 84.5249 122.392 98.3702C116.139 103.739 98.4021 113.346 77.4823 108.825C51.3325 103.174 61.8495 91.0237 43.0898 74.0704C24.3302 57.117 41.3844 16.994 61.8495 8.23479C82.3145 -0.524445 106.19 -4.76278 122.392 8.23479C138.593 21.2324 138.878 37.3381 143.71 55.1391Z" fill="#F4FBFF"/>
<rect x="8.18555" y="21.6886" width="64.1189" height="78.4434" rx="2" fill="#FFC7DB"/>
<rect y="13.5033" width="64.1189" height="78.4434" rx="2" fill="#AAF0D1"/>
<rect x="10.2319" y="63.2979" width="6.82117" height="2.72847" rx="1" fill="#FF689E"/>
<rect x="10.2319" y="70.119" width="6.82117" height="2.72847" rx="1" fill="#FF689E"/>
<rect x="10.2319" y="76.9402" width="6.82117" height="2.72847" rx="1" fill="#FF689E"/>
<rect x="25.2385" y="63.2979" width="27.2847" height="2.72847" rx="1" fill="white"/>
<rect x="25.2385" y="70.119" width="27.2847" height="2.72847" rx="1" fill="white"/>
<rect x="25.2385" y="76.9402" width="27.2847" height="2.72847" rx="1" fill="white"/>
<mask id="mask0" mask-type="alpha" maskUnits="userSpaceOnUse" x="21" y="27" width="22" height="21">
<path fill-rule="evenodd" clip-rule="evenodd" d="M31.3309 27.1456C30.2264 27.1456 29.3309 28.041 29.3309 29.1456V34.6489L23.8274 34.6489C22.7228 34.6489 21.8274 35.5444 21.8274 36.6489L21.8274 38.1059C21.8274 39.2104 22.7228 40.1059 23.8274 40.1059H29.3309V45.6091C29.3309 46.7136 30.2264 47.6091 31.3309 47.6091H32.7879C33.8924 47.6091 34.7879 46.7136 34.7879 45.6091V40.1059H40.2909C41.3955 40.1059 42.2909 39.2104 42.2909 38.1059V36.6489C42.2909 35.5444 41.3955 34.6489 40.2909 34.6489L34.7879 34.6489V29.1456C34.7879 28.041 33.8924 27.1456 32.7879 27.1456H31.3309Z" fill="#FFC7DB"/>
</mask>
<g mask="url(#mask0)">
<path fill-rule="evenodd" clip-rule="evenodd" d="M31.3309 27.1456C30.2264 27.1456 29.3309 28.041 29.3309 29.1456V34.6489L23.8274 34.6489C22.7228 34.6489 21.8274 35.5444 21.8274 36.6489L21.8274 38.1059C21.8274 39.2104 22.7228 40.1059 23.8274 40.1059H29.3309V45.6091C29.3309 46.7136 30.2264 47.6091 31.3309 47.6091H32.7879C33.8924 47.6091 34.7879 46.7136 34.7879 45.6091V40.1059H40.2909C41.3955 40.1059 42.2909 39.2104 42.2909 38.1059V36.6489C42.2909 35.5444 41.3955 34.6489 40.2909 34.6489L34.7879 34.6489V29.1456C34.7879 28.041 33.8924 27.1456 32.7879 27.1456H31.3309Z" fill="#FF689E"/>
<rect x="20.4634" y="38.0594" width="10.9139" height="10.9139" rx="2" fill="#FFC7DB"/>
</g>
<path fill-rule="evenodd" clip-rule="evenodd" d="M14.3246 6C12.0643 6 10.2319 7.83236 10.2319 10.0927V19.6423C10.2319 21.9027 12.0643 23.735 14.3246 23.735C16.585 23.735 18.4173 21.9027 18.4173 19.6423V10.0927C18.4173 7.83236 16.585 6 14.3246 6ZM14.3244 8.04629C13.1942 8.04629 12.278 8.96248 12.278 10.0926V19.6423C12.278 20.7724 13.1942 21.6886 14.3244 21.6886C15.4545 21.6886 16.3707 20.7724 16.3707 19.6423V10.0926C16.3707 8.96248 15.4545 8.04629 14.3244 8.04629Z" fill="#FFC7DB"/>
<rect x="15.6887" y="13.5033" width="3.41058" height="4.0927" fill="#AAF0D1"/>
<circle cx="17.394" cy="17.5961" r="1.02317" fill="#FFC7DB"/>
</svg>
