<svg width="145" height="110" fill="none" xmlns="http://www.w3.org/2000/svg"><path d="M143.71 55.14c4.832 17.8-4.264 29.385-21.318 43.23-6.253 5.369-23.99 14.976-44.91 10.455-26.15-5.651-15.633-17.801-34.392-34.755-18.76-16.953-1.706-57.076 18.76-65.835 20.464-8.76 44.34-12.998 60.542 0 16.201 12.997 16.486 29.103 21.318 46.904z" fill="#F4FBFF"/><rect x="8.186" y="21.689" width="64.119" height="78.443" rx="2" fill="#FFC7DB"/><rect y="13.503" width="64.119" height="78.443" rx="2" fill="#AAF0D1"/><rect x="10.232" y="63.298" width="6.821" height="2.728" rx="1" fill="#FF689E"/><rect x="10.232" y="70.119" width="6.821" height="2.728" rx="1" fill="#FF689E"/><rect x="10.232" y="76.94" width="6.821" height="2.728" rx="1" fill="#FF689E"/><rect x="25.238" y="63.298" width="27.285" height="2.728" rx="1" fill="#fff"/><rect x="25.238" y="70.119" width="27.285" height="2.728" rx="1" fill="#fff"/><rect x="25.238" y="76.94" width="27.285" height="2.728" rx="1" fill="#fff"/><mask id="a" maskUnits="userSpaceOnUse" x="21" y="27" width="22" height="21"><path fill-rule="evenodd" clip-rule="evenodd" d="M31.33 27.146a2 2 0 00-2 2v5.503h-5.503a2 2 0 00-2 2v1.457a2 2 0 002 2h5.504v5.503a2 2 0 002 2h1.457a2 2 0 002-2v-5.503h5.503a2 2 0 002-2v-1.457a2 2 0 00-2-2h-5.503v-5.503a2 2 0 00-2-2H31.33z" fill="#FFC7DB"/></mask><g mask="url(#a)"><path fill-rule="evenodd" clip-rule="evenodd" d="M31.33 27.146a2 2 0 00-2 2v5.503h-5.503a2 2 0 00-2 2v1.457a2 2 0 002 2h5.504v5.503a2 2 0 002 2h1.457a2 2 0 002-2v-5.503h5.503a2 2 0 002-2v-1.457a2 2 0 00-2-2h-5.503v-5.503a2 2 0 00-2-2H31.33z" fill="#FF689E"/><rect x="20.463" y="38.059" width="10.914" height="10.914" rx="2" fill="#FFC7DB"/></g><path fill-rule="evenodd" clip-rule="evenodd" d="M14.325 6a4.093 4.093 0 00-4.093 4.093v9.55a4.093 4.093 0 108.185 0v-9.55A4.093 4.093 0 0014.325 6zm0 2.046c-1.13 0-2.047.916-2.047 2.047v9.55a2.046 2.046 0 004.093 0v-9.55c0-1.13-.916-2.047-2.047-2.047z" fill="#FFC7DB"/><path fill="#AAF0D1" d="M15.689 13.503H19.1v4.093h-3.411z"/><circle cx="17.394" cy="17.596" r="1.023" fill="#FFC7DB"/></svg>