<svg width="145" height="110" fill="none" xmlns="http://www.w3.org/2000/svg"><path d="M143.71 55.14c4.832 17.8-4.264 29.385-21.318 43.23-6.253 5.369-23.99 14.976-44.91 10.455-26.15-5.651-15.633-17.801-34.392-34.755-18.76-16.953-1.706-57.076 18.76-65.835 20.464-8.76 44.34-12.998 60.542 0 16.201 12.997 16.486 29.103 21.318 46.904z" fill="#F4FBFF"/><rect x="10.188" y="58.127" width="44.404" height="17.663" rx="3" transform="rotate(-60 10.188 58.127)" fill="#AAF0D1"/><rect x="18.342" y="48.346" width="44.404" height="13.189" rx="3" transform="rotate(-60 18.342 48.346)" fill="#AAF0D1"/><rect x="35.924" y="13.551" width="11.029" height="17.663" rx="3" transform="rotate(-60 35.924 13.551)" fill="#AAF0D1"/><path fill-rule="evenodd" clip-rule="evenodd" d="M44.837 102.962c16.508 0 29.891-14.143 29.891-31.59 0-17.446-13.383-31.59-29.891-31.59-9.067 0-17.192 4.267-22.673 11.004a49.586 49.586 0 013.651-.134c17.634 0 31.93 9.277 31.93 20.72 0 11.444-14.296 20.72-31.93 20.72-1.235 0-2.453-.045-3.651-.134 5.481 6.737 13.606 11.004 22.673 11.004z" fill="#AAF0D1"/><circle cx="41.1" cy="46.236" r="12.568" fill="#FFC7DB"/><circle cx="41" cy="46" r="5" fill="#FF689E"/><rect x="7.473" y="79.864" width="30.571" height="3.397" rx="1.698" fill="#FF689E"/><path fill="#AAF0D1" d="M12.229 83.261h22.418v6.114H12.229z"/><path d="M0 100.016c0-6.627 5.373-12 12-12h50.728c6.628 0 12 5.373 12 12V102a3 3 0 01-3 3H3a3 3 0 01-3-3v-1.984z" fill="#FFC7DB"/></svg>