<svg width="176" height="90" fill="none" xmlns="http://www.w3.org/2000/svg"><mask id="a" maskUnits="userSpaceOnUse" x="50" y="0" width="90" height="90"><path d="M138.944 45.114c3.954 14.564-3.488 24.043-17.442 35.37-5.116 4.393-19.628 12.253-36.744 8.554-21.395-4.623-12.79-14.564-28.14-28.435-15.348-13.87-1.394-46.699 15.35-53.865 16.744-7.167 36.279-10.635 49.534 0 13.256 10.634 13.489 23.811 17.442 38.376z" fill="#F4F9FC"/></mask><g mask="url(#a)"><path d="M138.944 45.114c3.954 14.564-3.488 24.043-17.442 35.37-5.116 4.393-19.628 12.253-36.744 8.554-21.395-4.623-12.79-14.564-28.14-28.435-15.348-13.87-1.394-46.699 15.35-53.865 16.744-7.167 36.279-10.635 49.534 0 13.256 10.634 13.489 23.811 17.442 38.376z" fill="#F4FBFF"/></g><path d="M17.177 73.38c-3.936 0-6.932-1.218-8.989-3.655-2.03-2.463-3.046-6.056-3.046-10.779V57.69c0-3.073.52-6.615 1.561-10.627 1.067-4.011 2.31-7.591 3.732-10.74a56.916 56.916 0 015.028-8.874c1.93-2.742 4.037-5.129 6.322-7.16 4.926-4.342 10.017-6.513 15.273-6.513 5.56 0 9.166 2.717 10.816 8.15.559 1.829.838 3.568.838 5.219 0 1.65-.089 3.541-.267 5.674-.152 2.108-.672 4.875-1.561 8.303a59.454 59.454 0 01-3.504 9.826 58.536 58.536 0 01-5.028 8.798c-1.878 2.742-3.948 5.129-6.207 7.16-4.85 4.317-9.84 6.475-14.968 6.475zm23.956-48.292c0-4.24-1.613-6.36-4.837-6.36-3.047 0-6.411 2.323-10.093 6.97-3.428 4.366-6.424 9.8-8.988 16.3-2.666 6.754-4.202 13.013-4.609 18.776-.152 2.387.19 4.266 1.029 5.637.838 1.346 1.98 2.019 3.428 2.019a8.265 8.265 0 004.15-1.105c1.296-.761 2.59-1.803 3.886-3.123 1.32-1.32 2.602-2.869 3.846-4.646a67.01 67.01 0 003.58-5.828 72.519 72.519 0 003.162-6.626 80.61 80.61 0 002.628-7.008c1.878-5.916 2.818-10.664 2.818-14.244v-.762zm41.095 38.314c.761 0 1.142.724 1.142 2.171 0 1.448-.216 2.628-.647 3.542a6.72 6.72 0 01-1.79 2.324c-1.55 1.294-3.606 1.942-6.17 1.942-1.778 0-3.796-.356-6.056-1.067-2.26-.736-3.999-1.27-5.218-1.6-1.193-.33-2.298-.494-3.313-.494-.99 0-1.803.101-2.438.304-.61.204-1.18.457-1.714.762-.507.305-1.002.622-1.485.952-1.016.711-1.714 1.067-2.095 1.067-.355 0-.71-.102-1.066-.305a4.156 4.156 0 01-.99-.8c-.711-.761-1.067-1.358-1.067-1.79 0-.431.229-1.206.686-2.323.482-1.117 1.434-2.653 2.856-4.609a65.929 65.929 0 014.723-5.827 115.08 115.08 0 015.484-5.713c5.637-5.535 9.293-9.19 10.97-10.968 1.7-1.778 3.198-3.542 4.493-5.294 2.819-3.783 4.228-7.199 4.228-10.245 0-3.225-1.155-5.307-3.466-6.246-.711-.28-1.638-.42-2.78-.42-1.118 0-2.247.33-3.39.99a9.62 9.62 0 00-2.894 2.438c-1.625 2.006-2.438 4.177-2.438 6.513 0 2.133.61 3.453 1.828 3.961.508.228.762.559.762.99 0 .914-.444 1.752-1.333 2.514-1.65 1.422-3.06 2.133-4.228 2.133-1.168 0-2.107-.216-2.818-.648a5.757 5.757 0 01-1.79-1.714c-.965-1.422-1.447-2.958-1.447-4.608 0-1.676.203-3.174.609-4.494.406-1.32.99-2.603 1.752-3.847a21.865 21.865 0 012.78-3.58 19.508 19.508 0 013.656-2.933c2.971-1.828 5.878-2.742 8.722-2.742 2.87 0 5.129.381 6.78 1.143 1.675.762 3.034 1.752 4.075 2.97 1.93 2.337 2.894 5.307 2.894 8.913 0 5.916-2.869 11.895-8.607 17.938-3.022 3.174-6.081 6.005-9.179 8.493l-7.236 5.828c-3.936 3.25-6.653 5.916-8.15 7.997 1.954-.863 3.567-1.332 4.836-1.409 1.27-.101 2.298-.127 3.085-.076.813.026 1.663.076 2.552.153 2.336.203 4.202.304 5.599.304 1.396 0 2.602-.127 3.618-.38 1.04-.28 1.879-.585 2.513-.915.66-.33 1.206-.622 1.638-.876.432-.279.94-.419 1.524-.419z" fill="#FF689E"/><path d="M131.457 47.707c-1.076 0-1.614-.415-1.614-1.246 0-.755.274-1.463.821-2.124.982-1.19 1.746-1.765 2.294-1.728h13.084c.831 0 1.246.378 1.246 1.133 0 .793-.274 1.52-.821 2.18-.963 1.19-1.794 1.785-2.492 1.785h-12.518zm14.793 12.8c-.83 0-1.246-.547-1.246-1.642 0-1.208.52-2.114 1.558-2.718l19.683-11.47-20.221-11.753c-.661-.378-.991-.765-.991-1.161 0-.416.066-.737.198-.963a2.402 2.402 0 012.124-1.218c.604 0 1.133.132 1.586.396l22.854 12.603c1.53.906 2.294 1.614 2.294 2.124s-.576 1.067-1.727 1.671l-25.12 13.849c-.359.188-.689.283-.992.283z" fill="#AAF0D1"/></svg>