<svg width="160" height="211" fill="none" xmlns="http://www.w3.org/2000/svg"><path d="M0 18.972h160v189a3 3 0 01-3 3H3a3 3 0 01-3-3v-189z" fill="#AAF0D1"/><path fill="#FFF1F6" d="M0 30h160v111H0z"/><path d="M0 15.526V30a2 2 0 002 2h156a2 2 0 002-2V2.963c0-1.417-1.434-2.385-2.755-1.872C132.911 10.55 106.468 15.873 66 7.5 37.393 1.581 26.301.041 1.048 13.77A2.01 2.01 0 000 15.527z" fill="#FFF1F6"/><path d="M50.124 80.693c.342 0 .513.325.513.975 0 .649-.097 1.179-.29 1.589-.194.41-.462.757-.803 1.042-.695.581-1.618.872-2.77.872-.797 0-1.702-.16-2.716-.479a52.233 52.233 0 00-2.342-.717 5.605 5.605 0 00-1.486-.223c-.445 0-.81.046-1.094.137-.274.091-.53.205-.77.342-.227.137-.45.28-.666.427-.456.32-.769.479-.94.479a.958.958 0 01-.478-.137 1.863 1.863 0 01-.445-.359c-.319-.342-.478-.61-.478-.803 0-.194.102-.541.307-1.043.217-.5.644-1.19 1.282-2.067a29.594 29.594 0 012.12-2.615 51.606 51.606 0 012.46-2.564c2.53-2.483 4.17-4.124 4.922-4.922a24.61 24.61 0 002.017-2.375c1.264-1.698 1.897-3.23 1.897-4.597 0-1.447-.519-2.381-1.555-2.803-.32-.125-.735-.188-1.248-.188-.501 0-1.008.148-1.521.444a4.32 4.32 0 00-1.299 1.094c-.729.9-1.093 1.874-1.093 2.922 0 .958.273 1.55.82 1.778.228.102.342.25.342.444 0 .41-.2.786-.599 1.128-.74.638-1.372.957-1.896.957-.525 0-.946-.097-1.265-.29a2.584 2.584 0 01-.803-.77 3.611 3.611 0 01-.65-2.067c0-.752.091-1.424.274-2.017a7.556 7.556 0 01.786-1.726 9.796 9.796 0 011.247-1.606 8.751 8.751 0 011.64-1.316c1.334-.82 2.639-1.23 3.915-1.23 1.287 0 2.3.17 3.041.512.752.342 1.362.786 1.83 1.333.865 1.048 1.298 2.381 1.298 3.999 0 2.655-1.288 5.338-3.862 8.05a42.185 42.185 0 01-4.119 3.81L42.4 78.728c-1.766 1.458-2.985 2.655-3.657 3.589.877-.387 1.6-.598 2.17-.632a10.01 10.01 0 011.384-.035c.365.012.747.035 1.145.069 1.049.09 1.886.137 2.513.137.626 0 1.167-.057 1.623-.171a5.816 5.816 0 001.128-.41c.296-.149.541-.28.735-.394a1.23 1.23 0 01.683-.188zm10.938 4.478c-1.766 0-3.11-.547-4.033-1.64-.912-1.106-1.367-2.718-1.367-4.837v-.564c0-1.379.233-2.968.7-4.768.479-1.8 1.037-3.407 1.675-4.82a25.536 25.536 0 012.256-3.981 18.568 18.568 0 012.837-3.213c2.21-1.949 4.494-2.923 6.853-2.923 2.495 0 4.113 1.22 4.853 3.658.251.82.376 1.6.376 2.34 0 .741-.04 1.59-.12 2.547-.068.946-.301 2.188-.7 3.726a26.68 26.68 0 01-1.572 4.409 26.263 26.263 0 01-2.256 3.948 17.879 17.879 0 01-2.786 3.213c-2.176 1.936-4.415 2.905-6.716 2.905zm10.75-21.67c0-1.903-.724-2.854-2.17-2.854-1.368 0-2.878 1.043-4.53 3.127-1.538 1.96-2.882 4.398-4.033 7.315-1.196 3.03-1.886 5.839-2.068 8.425-.068 1.071.086 1.914.462 2.53.376.603.888.905 1.538.905.66 0 1.281-.165 1.862-.495.582-.342 1.163-.81 1.744-1.402a15.556 15.556 0 001.726-2.085 30.074 30.074 0 001.606-2.614 32.51 32.51 0 001.419-2.974 36.187 36.187 0 001.179-3.145c.843-2.654 1.264-4.785 1.264-6.391V63.5zm21.071 4.136c0 1.242-.763 3.412-2.29 6.51.445-.033.78-.05 1.009-.05.227 0 .444.068.649.205.205.125.393.285.564.478.387.456.581.815.581 1.077s-.057.439-.17.53c-.115.09-.331.114-.65.068a11.12 11.12 0 00-1.607-.12h-1.025c-.148 0-.302.006-.462.018-1.321 2.426-2.312 4.192-2.973 5.297-1.402 2.336-2.57 3.504-3.504 3.504-.467 0-.7-.211-.7-.632 0-.445.205-1.003.615-1.675.467-.866.951-1.84 1.453-2.923l1.486-3.315c-2.096.182-3.463.273-4.101.273-1.22 0-2.045-.062-2.478-.188-.422-.125-.752-.296-.991-.512a4.016 4.016 0 01-.616-.752c-.376-.604-.558-1.088-.547-1.453.023-.376.16-.815.41-1.316l2.257-4.17c1.811-3.475 2.842-6.63 3.093-9.468.045-.41.364-.615.957-.615.638 0 1.162.16 1.572.479.775.615 1.162 1.259 1.162 1.93a7.7 7.7 0 01-.308 2.086 19.146 19.146 0 01-.82 2.273c-.342.786-.735 1.6-1.179 2.444-.444.831-.9 1.646-1.367 2.444-1.242 1.982-2.142 3.378-2.7 4.187.444.25 1.173.375 2.187.375a60.23 60.23 0 004.358-.153l.77-1.983c.751-1.914 1.207-3.298 1.366-4.153.262-.957.445-1.68.547-2.17.103-.501.25-.752.445-.752.729 0 1.418.245 2.067.735.627.478.94.974.94 1.487zm8.443 15.483c-.513.66-.992 1.15-1.436 1.47-.444.319-.963.478-1.555.478s-.889-.199-.889-.598c0-.33.154-.712.462-1.145.319-.444.558-.769.718-.974.159-.216.506-.655 1.042-1.316C110.309 67.91 115.932 61 116.536 60.305c.957-1.287 2.033-1.931 3.23-1.931.558 0 .837.182.837.547 0 .501-.547 1.47-1.641 2.905l-3.161 3.93-10.425 12.613-4.05 4.751zm3.178-13.09a7.511 7.511 0 01-1.76.956 5.514 5.514 0 01-1.931.342 5.86 5.86 0 01-1.829-.273 4.148 4.148 0 01-1.435-.855c-.843-.809-1.265-2.005-1.265-3.589 0-1.914.735-3.737 2.205-5.468 1.538-1.812 3.31-2.718 5.315-2.718 2.016 0 3.355.878 4.016 2.632a5.57 5.57 0 01.342 1.983 7.38 7.38 0 01-.274 2.033 8.924 8.924 0 01-.735 1.863 9.41 9.41 0 01-1.162 1.709 8.5 8.5 0 01-1.487 1.384zm-3.742-.582c.592 0 1.219-.427 1.88-1.281.968-1.231 1.64-2.74 2.016-4.53.114-.546.171-.996.171-1.35a5.73 5.73 0 00-.051-.854 1.84 1.84 0 00-.154-.598c-.194-.353-.467-.53-.82-.53-.353 0-.678.108-.974.325-.297.205-.599.495-.906.871-.296.365-.587.792-.872 1.282-.285.479-.541.991-.769 1.538-.478 1.208-.718 2.364-.718 3.47 0 1.105.4 1.657 1.197 1.657zm9.536 13.125a5.43 5.43 0 01-.342-1.965c0-.718.086-1.396.256-2.034a9 9 0 01.769-1.88 10.17 10.17 0 011.18-1.709 8.366 8.366 0 011.521-1.401c1.207-.877 2.472-1.316 3.794-1.316 2.016 0 3.355.877 4.016 2.632a5.57 5.57 0 01.341 1.982c0 .718-.091 1.396-.273 2.034a8.926 8.926 0 01-.735 1.863 9.413 9.413 0 01-1.162 1.709c-.444.524-.94.985-1.487 1.384-1.185.866-2.415 1.299-3.691 1.299-2.153 0-3.549-.866-4.187-2.598zm4.136.718c.592 0 1.219-.427 1.879-1.282.969-1.23 1.641-2.74 2.017-4.528.114-.547.171-.997.171-1.35 0-.354-.017-.639-.051-.855a1.84 1.84 0 00-.154-.598c-.194-.353-.467-.53-.82-.53-.354 0-.678.108-.975.325a4.546 4.546 0 00-.905.871 9.958 9.958 0 00-.872 1.282c-.285.478-.541.991-.769 1.538-.478 1.208-.718 2.364-.718 3.47 0 1.104.399 1.657 1.197 1.657z" fill="#FF689E"/></svg>