<svg width="160" height="410" viewBox="0 0 160 410" fill="none" xmlns="http://www.w3.org/2000/svg">
<path d="M0 49H160V407C160 408.657 158.657 410 157 410H3C1.34315 410 0 408.657 0 407V49Z" fill="#AAF0D1"/>
<path d="M0 30.9717C0 29.3148 1.34315 27.9717 3 27.9717H157C158.657 27.9717 160 29.3148 160 30.9717V339.972H0V30.9717Z" fill="#FFF1F6"/>
<path d="M0 15.5256V30C0 31.1046 0.895429 32 2 32H158C159.105 32 160 31.1046 160 30V2.96329C160 1.54589 158.566 0.577786 157.245 1.0913C132.911 10.55 106.468 15.8727 66 7.5C37.3928 1.58127 26.3013 0.0414616 1.04836 13.7706C0.408389 14.1185 0 14.7972 0 15.5256Z" fill="#FFF1F6"/>
<path d="M54.7563 77.6367C54.7563 78.8786 53.993 81.049 52.4663 84.1479C52.9106 84.1138 53.2467 84.0967 53.4746 84.0967C53.7025 84.0967 53.9189 84.165 54.124 84.3018C54.3291 84.4271 54.5171 84.5866 54.688 84.7803C55.0754 85.236 55.269 85.5949 55.269 85.8569C55.269 86.119 55.2121 86.2956 55.0981 86.3867C54.9842 86.4779 54.7677 86.5007 54.4487 86.4551C53.9019 86.3753 53.3664 86.3354 52.8423 86.3354H51.8169C51.6688 86.3354 51.515 86.3411 51.3555 86.3525C50.0339 88.7793 49.0426 90.5452 48.3818 91.6504C46.9805 93.986 45.8127 95.1538 44.8784 95.1538C44.4113 95.1538 44.1777 94.943 44.1777 94.5215C44.1777 94.0771 44.3828 93.5189 44.793 92.8467C45.2601 91.9808 45.7443 91.0067 46.2456 89.9243L47.7324 86.6089C45.6361 86.7912 44.2689 86.8823 43.6309 86.8823C42.4118 86.8823 41.5858 86.8197 41.1528 86.6943C40.7313 86.569 40.4009 86.3981 40.1616 86.1816C39.9338 85.9652 39.7287 85.7145 39.5464 85.4297C39.1704 84.8258 38.9881 84.3416 38.9995 83.9771C39.0223 83.6011 39.159 83.1624 39.4097 82.6611L41.6655 78.4912C43.4771 75.0163 44.5081 71.8604 44.7588 69.0234C44.8044 68.6133 45.1234 68.4082 45.7158 68.4082C46.3538 68.4082 46.8779 68.5677 47.2881 68.8867C48.0628 69.502 48.4502 70.1457 48.4502 70.8179C48.4502 71.4787 48.3477 72.1737 48.1426 72.9028C47.9375 73.6206 47.6641 74.3783 47.3223 75.1758C46.9805 75.9619 46.5874 76.7765 46.1431 77.6196C45.6987 78.4513 45.243 79.266 44.7759 80.0635C43.534 82.0459 42.634 83.4416 42.0757 84.2505C42.52 84.5011 43.2492 84.6265 44.2632 84.6265C45.7557 84.6265 47.2083 84.5752 48.6211 84.4727L49.3901 82.4902C50.1421 80.5762 50.5978 79.1919 50.7573 78.3374C51.0194 77.3804 51.2017 76.6569 51.3042 76.167C51.4067 75.6657 51.5549 75.415 51.7485 75.415C52.4777 75.415 53.167 75.66 53.8164 76.1499C54.443 76.6284 54.7563 77.124 54.7563 77.6367ZM63.4551 84.8315C63.0107 84.8315 62.7886 84.6606 62.7886 84.3188C62.7886 83.5213 63.0677 82.8434 63.626 82.2852C63.8083 82.1029 64.1615 81.9377 64.6855 81.7896C65.221 81.63 65.9046 81.3053 66.7363 80.8154C67.5794 80.3141 68.3428 79.7103 69.0264 79.0039C70.5645 77.3975 71.3335 75.5688 71.3335 73.5181C71.3335 72.6294 71.1113 71.9344 70.667 71.4331C70.2227 70.9204 69.6587 70.6641 68.9751 70.6641C68.2915 70.6641 67.6649 70.8122 67.0952 71.1084C66.5369 71.3932 66.047 71.7578 65.6255 72.2021C64.7254 73.1364 64.2754 74.1105 64.2754 75.1245C64.2754 76.0815 64.5488 76.674 65.0957 76.9019C65.3236 77.0044 65.4375 77.1525 65.4375 77.3462C65.4375 77.7563 65.2381 78.1323 64.8394 78.4741C64.0988 79.1121 63.4722 79.4312 62.9595 79.4312C62.4468 79.4312 62.0309 79.3514 61.7119 79.1919C61.3929 79.0324 61.1195 78.8102 60.8916 78.5254C60.4473 77.9329 60.2251 77.255 60.2251 76.4917C60.2251 75.7284 60.3276 75.0448 60.5327 74.4409C60.7378 73.8371 61.0226 73.2503 61.3872 72.6807C61.7632 72.0996 62.2132 71.5527 62.7373 71.04C63.2728 70.5273 63.8652 70.0716 64.5146 69.6729C65.9046 68.8298 67.2604 68.4082 68.582 68.4082C69.915 68.4082 70.9518 68.5791 71.6924 68.9209C72.4443 69.2627 73.0482 69.707 73.5039 70.2539C74.347 71.2679 74.7686 72.6009 74.7686 74.2529C74.7686 76.9417 73.5381 79.4539 71.0771 81.7896C70.1657 82.6554 69.2884 83.2992 68.4453 83.7207C69.4251 84.0169 70.0973 84.8258 70.4619 86.1475C70.5758 86.5576 70.6328 87.0304 70.6328 87.5659C70.6328 88.09 70.536 88.6597 70.3423 89.2749C70.1486 89.8901 69.8752 90.4883 69.522 91.0693C69.1688 91.639 68.7358 92.1745 68.2231 92.6758C67.7104 93.1657 67.1351 93.5986 66.4971 93.9746C65.1185 94.7721 63.626 95.1709 62.0195 95.1709C60.3675 95.1709 59.0801 94.738 58.1572 93.8721C57.3597 93.1315 56.9609 92.2314 56.9609 91.1719C56.9609 90.3402 57.223 89.5768 57.7471 88.8818C58.3737 88.0843 59.1883 87.6855 60.1909 87.6855C60.7492 87.6855 61.1479 87.8052 61.3872 88.0444C61.8088 88.466 61.9113 88.8021 61.6948 89.0527C61.4897 89.292 61.3075 89.5142 61.1479 89.7192C60.9998 89.9129 60.8745 90.1123 60.772 90.3174C60.5669 90.7048 60.4644 91.0579 60.4644 91.377C60.4644 91.696 60.4928 91.9523 60.5498 92.146C60.6068 92.3283 60.6979 92.4935 60.8232 92.6416C61.1195 92.972 61.5752 93.1372 62.1904 93.1372C62.8057 93.1372 63.4038 92.9435 63.9849 92.5562C64.5773 92.1688 65.0957 91.6732 65.54 91.0693C66.4857 89.7819 66.9585 88.3976 66.9585 86.9165C66.9585 85.424 66.3376 84.6777 65.0957 84.6777L63.4551 84.8315ZM78.3232 93.4619C78.1751 93.0632 78.1466 92.408 78.2378 91.4966C78.3403 90.5851 78.6593 89.4515 79.1948 88.0957C79.7417 86.7285 80.3968 85.3784 81.1602 84.0454C81.9349 82.701 82.778 81.3965 83.6895 80.1318L86.3384 76.543L88.7139 73.5181C89.443 72.6066 90.0184 71.8376 90.4399 71.2109C88.3208 72.1338 86.2415 72.806 84.2021 73.2275C83.5641 73.3529 83.0286 73.4155 82.5957 73.4155C82.1628 73.4155 81.7697 73.3813 81.4165 73.313C81.0633 73.2332 80.75 73.125 80.4766 72.9883C79.9639 72.7262 79.5252 72.3161 79.1606 71.7578C78.8872 71.4046 78.7505 70.8521 78.7505 70.1001C78.7505 69.2342 78.9328 68.7899 79.2974 68.7671C79.548 68.7557 79.8158 68.8127 80.1006 68.938C80.3968 69.0519 80.7443 69.1829 81.1431 69.3311C82.214 69.7298 83.2565 69.9292 84.2705 69.9292C85.2845 69.9292 86.1333 69.8722 86.8169 69.7583C87.5119 69.633 88.1328 69.4963 88.6797 69.3481L90.1494 68.9551C90.5824 68.8298 90.9469 68.7671 91.2432 68.7671C91.5394 68.7671 91.8413 68.8582 92.1489 69.0405C92.4565 69.2228 92.7243 69.445 92.9521 69.707C93.499 70.3109 93.6984 70.8065 93.5503 71.1938C93.4022 71.5812 93.123 72.0882 92.7129 72.7148C92.3027 73.3415 91.8128 74.0479 91.2432 74.834C89.2949 77.5114 87.9733 79.3685 87.2783 80.4053C86.5947 81.4307 85.9225 82.5016 85.2617 83.6182C84.6123 84.7233 84.0312 85.8455 83.5186 86.9849C82.4134 89.4914 81.8381 91.7643 81.7925 93.8037C81.7925 94.2822 81.7526 94.5955 81.6729 94.7437C81.4108 95.245 80.8127 95.3304 79.8784 95C79.1493 94.7266 78.6309 94.2139 78.3232 93.4619ZM98.5747 93.1201C98.062 93.7809 97.5835 94.2708 97.1392 94.5898C96.6948 94.9089 96.1764 95.0684 95.584 95.0684C94.9915 95.0684 94.6953 94.869 94.6953 94.4702C94.6953 94.1398 94.8491 93.7581 95.1567 93.3252C95.4757 92.8809 95.715 92.5562 95.8745 92.3511C96.034 92.1346 96.3815 91.696 96.917 91.0352C107.558 77.9102 113.181 71.0002 113.785 70.3052C114.742 69.0177 115.818 68.374 117.015 68.374C117.573 68.374 117.852 68.5563 117.852 68.9209C117.852 69.4222 117.305 70.3906 116.211 71.8262L113.05 75.7568L102.625 88.3691L98.5747 93.1201ZM101.753 80.0293C101.207 80.4281 100.62 80.7471 99.9932 80.9863C99.3779 81.2142 98.7342 81.3281 98.062 81.3281C97.4012 81.3281 96.7917 81.237 96.2334 81.0547C95.6865 80.861 95.208 80.5762 94.7979 80.2002C93.9548 79.3913 93.5332 78.195 93.5332 76.6113C93.5332 74.6973 94.2681 72.8743 95.7378 71.1426C97.2759 69.3311 99.0475 68.4253 101.053 68.4253C103.069 68.4253 104.408 69.3026 105.069 71.0571C105.297 71.661 105.411 72.3218 105.411 73.0396C105.411 73.7573 105.319 74.4352 105.137 75.0732C104.966 75.7113 104.721 76.3322 104.402 76.936C104.083 77.5399 103.696 78.1095 103.24 78.645C102.796 79.1691 102.3 79.6305 101.753 80.0293ZM98.0107 79.4482C98.6032 79.4482 99.2298 79.021 99.8906 78.1665C100.859 76.936 101.531 75.4264 101.907 73.6377C102.021 73.0908 102.078 72.6408 102.078 72.2876C102.078 71.9344 102.061 71.6496 102.027 71.4331C102.004 71.2052 101.953 71.0059 101.873 70.835C101.679 70.4818 101.406 70.3052 101.053 70.3052C100.7 70.3052 100.375 70.4134 100.079 70.6299C99.7824 70.835 99.4805 71.1255 99.1729 71.5015C98.8766 71.866 98.5861 72.2933 98.3013 72.7832C98.0164 73.2617 97.7601 73.7744 97.5322 74.3213C97.0537 75.529 96.8145 76.6854 96.8145 77.7905C96.8145 78.8957 97.2132 79.4482 98.0107 79.4482ZM107.547 92.5732C107.319 91.9808 107.205 91.3257 107.205 90.6079C107.205 89.8901 107.291 89.2122 107.461 88.5742C107.644 87.9248 107.9 87.2982 108.23 86.6943C108.561 86.0905 108.954 85.5208 109.41 84.9854C109.865 84.4499 110.372 83.9827 110.931 83.584C112.138 82.7067 113.403 82.2681 114.725 82.2681C116.741 82.2681 118.08 83.1453 118.741 84.8999C118.969 85.5037 119.083 86.1646 119.083 86.8823C119.083 87.6001 118.991 88.278 118.809 88.916C118.638 89.554 118.393 90.175 118.074 90.7788C117.755 91.3826 117.368 91.9523 116.912 92.4878C116.468 93.0119 115.972 93.4733 115.425 93.8721C114.24 94.738 113.01 95.1709 111.734 95.1709C109.581 95.1709 108.185 94.305 107.547 92.5732ZM111.683 93.291C112.275 93.291 112.902 92.8638 113.562 92.0093C114.531 90.7788 115.203 89.2692 115.579 87.4805C115.693 86.9336 115.75 86.4836 115.75 86.1304C115.75 85.7772 115.733 85.4924 115.699 85.2759C115.676 85.048 115.625 84.8486 115.545 84.6777C115.351 84.3245 115.078 84.1479 114.725 84.1479C114.371 84.1479 114.047 84.2562 113.75 84.4727C113.454 84.6777 113.152 84.9683 112.845 85.3442C112.549 85.7088 112.258 86.1361 111.973 86.626C111.688 87.1045 111.432 87.6172 111.204 88.1641C110.726 89.3717 110.486 90.5282 110.486 91.6333C110.486 92.7384 110.885 93.291 111.683 93.291Z" fill="#FF689E"/>
</svg>
