<svg width="160" height="296" fill="none" xmlns="http://www.w3.org/2000/svg"><path d="M0 48h160v245a3 3 0 01-3 3H3a3 3 0 01-3-3V48z" fill="#AAF0D1"/><path d="M0 29.972a3 3 0 013-3h154a3 3 0 013 3v196H0v-196z" fill="#FFF1F6"/><path d="M0 15.526V30a2 2 0 002 2h156a2 2 0 002-2V2.963c0-1.417-1.434-2.385-2.755-1.872C132.911 10.55 106.468 15.873 66 7.5 37.393 1.581 26.301.041 1.048 13.77A2.01 2.01 0 000 15.527z" fill="#FFF1F6"/><path d="M51.124 89.693c.342 0 .513.325.513.975 0 .649-.097 1.179-.29 1.589-.194.41-.462.757-.803 1.042-.695.581-1.618.872-2.77.872-.797 0-1.702-.16-2.716-.479a52.233 52.233 0 00-2.342-.717 5.605 5.605 0 00-1.486-.223c-.445 0-.81.046-1.094.137-.274.091-.53.205-.77.342-.227.137-.45.28-.666.427-.456.32-.769.479-.94.479a.958.958 0 01-.478-.137 1.863 1.863 0 01-.445-.359c-.319-.342-.478-.61-.478-.803 0-.194.102-.541.307-1.043.217-.5.644-1.19 1.282-2.067a29.594 29.594 0 012.12-2.615 51.606 51.606 0 012.46-2.564c2.53-2.483 4.17-4.124 4.922-4.922a24.61 24.61 0 002.017-2.375c1.264-1.698 1.897-3.23 1.897-4.597 0-1.447-.519-2.381-1.555-2.803-.32-.125-.735-.188-1.248-.188-.501 0-1.008.148-1.521.444a4.32 4.32 0 00-1.299 1.094c-.729.9-1.093 1.874-1.093 2.922 0 .958.273 1.55.82 1.778.228.102.342.25.342.444 0 .41-.2.786-.599 1.128-.74.638-1.372.957-1.896.957-.525 0-.946-.097-1.265-.29a2.584 2.584 0 01-.803-.77 3.611 3.611 0 01-.65-2.067c0-.752.091-1.424.274-2.017a7.556 7.556 0 01.786-1.726 9.796 9.796 0 011.247-1.606 8.751 8.751 0 011.64-1.316c1.334-.82 2.639-1.23 3.915-1.23 1.287 0 2.3.17 3.041.512.752.342 1.362.786 1.83 1.333.865 1.048 1.298 2.381 1.298 3.999 0 2.655-1.288 5.338-3.862 8.05a42.185 42.185 0 01-4.119 3.81L43.4 87.728c-1.766 1.458-2.985 2.655-3.657 3.589.877-.387 1.6-.598 2.17-.632a10.01 10.01 0 011.384-.035c.365.012.747.035 1.145.069 1.049.09 1.886.137 2.513.137.626 0 1.167-.057 1.623-.171a5.816 5.816 0 001.128-.41c.296-.149.541-.28.735-.394a1.23 1.23 0 01.683-.188zm15.774-7.468c1.276 2.108 1.915 3.97 1.915 5.589 0 1.88-.73 3.429-2.188 4.648-1.39 1.14-3.03 1.709-4.922 1.709-1.982 0-3.486-.604-4.512-1.812a4.802 4.802 0 01-1.162-3.178c0-2.165 1.225-4.034 3.675-5.606.774-.49 1.6-.9 2.478-1.23-1.595-2.279-2.393-4.54-2.393-6.785 0-2.29.752-4.227 2.256-5.81 1.447-1.539 3.236-2.319 5.366-2.342 1.971-.023 3.52.558 4.649 1.743 1.048 1.083 1.572 2.484 1.572 4.205 0 3.816-2.228 6.761-6.682 8.835l-.052.034zm-1.247-1.948c2.803-1.481 4.204-3.64 4.204-6.477 0-1.516-.336-2.632-1.008-3.35-.616-.66-1.407-.94-2.376-.837-.889.068-1.657.484-2.307 1.247-.706.82-1.06 1.8-1.06 2.94 0 1.06.188 2.016.565 2.87.375.855.717 1.539 1.025 2.052l.957 1.555zm-2.153 3.828c-2.632.9-3.948 2.478-3.948 4.734 0 1.538.587 2.586 1.76 3.144.399.183.826.274 1.282.274.467 0 .889-.08 1.264-.24a3.366 3.366 0 001.026-.683c.672-.65 1.008-1.413 1.008-2.29 0-.786-.177-1.498-.53-2.136a12.75 12.75 0 00-.957-1.555l-.905-1.248zm17.14-.273c-.444 0-.666-.171-.666-.513 0-.798.28-1.476.838-2.034.182-.182.535-.347 1.06-.495.535-.16 1.218-.485 2.05-.975a10.988 10.988 0 002.29-1.811c1.538-1.607 2.307-3.435 2.307-5.486 0-.889-.222-1.584-.666-2.085a2.141 2.141 0 00-1.692-.769c-.684 0-1.31.148-1.88.444a5.376 5.376 0 00-1.47 1.094c-.9.934-1.35 1.909-1.35 2.922 0 .958.273 1.55.82 1.778.228.102.342.25.342.444 0 .41-.2.786-.598 1.128-.74.638-1.367.957-1.88.957-.513 0-.928-.08-1.248-.24a2.436 2.436 0 01-.82-.666 3.3 3.3 0 01-.666-2.033c0-.764.102-1.447.307-2.051.205-.604.49-1.19.855-1.76a9.563 9.563 0 011.35-1.641 10.517 10.517 0 011.777-1.367c1.39-.843 2.746-1.265 4.068-1.265 1.333 0 2.37.171 3.11.513.752.342 1.356.786 1.811 1.333.844 1.014 1.265 2.347 1.265 3.999 0 2.689-1.23 5.2-3.691 7.537-.912.865-1.789 1.51-2.632 1.93.98.297 1.652 1.106 2.016 2.427.114.41.171.883.171 1.419 0 .524-.096 1.094-.29 1.709a8.175 8.175 0 01-.82 1.794 8.546 8.546 0 01-1.3 1.607 9.38 9.38 0 01-1.725 1.299 8.79 8.79 0 01-4.478 1.196c-1.652 0-2.94-.433-3.862-1.299-.798-.74-1.197-1.64-1.197-2.7 0-.832.263-1.595.787-2.29.626-.798 1.44-1.197 2.444-1.197.558 0 .957.12 1.196.36.421.421.524.757.307 1.008-.205.239-.387.461-.546.666a3.732 3.732 0 00-.376.598c-.206.388-.308.74-.308 1.06 0 .319.028.575.085.769.057.182.148.347.274.496.296.33.752.495 1.367.495s1.213-.194 1.794-.58a6.009 6.009 0 001.556-1.488c.945-1.287 1.418-2.671 1.418-4.153 0-1.492-.62-2.238-1.863-2.238l-1.64.154zm18.543 8.288c-.513.66-.991 1.15-1.435 1.47-.445.319-.963.478-1.556.478-.592 0-.888-.199-.888-.598 0-.33.154-.712.461-1.145.32-.444.558-.769.718-.974.16-.216.507-.655 1.042-1.316C108.165 76.91 113.787 70 114.391 69.305c.957-1.287 2.034-1.931 3.23-1.931.558 0 .837.182.837.547 0 .501-.546 1.47-1.64 2.905l-3.162 3.93-10.425 12.613-4.05 4.751zm3.179-13.09a7.551 7.551 0 01-1.76.956 5.518 5.518 0 01-1.931.342c-.661 0-1.27-.091-1.83-.273a4.149 4.149 0 01-1.435-.855c-.843-.809-1.264-2.005-1.264-3.589 0-1.914.734-3.737 2.204-5.468 1.538-1.812 3.31-2.718 5.315-2.718 2.017 0 3.355.878 4.016 2.632a5.57 5.57 0 01.342 1.983 7.38 7.38 0 01-.273 2.033 8.924 8.924 0 01-.735 1.863 9.46 9.46 0 01-1.162 1.709c-.445.524-.94.986-1.487 1.384zm-3.743-.582c.593 0 1.22-.427 1.88-1.281.968-1.231 1.641-2.74 2.017-4.53.114-.546.171-.996.171-1.35a5.71 5.71 0 00-.052-.854 1.815 1.815 0 00-.154-.598c-.193-.353-.467-.53-.82-.53-.353 0-.678.108-.974.325-.296.205-.598.496-.906.871a10.01 10.01 0 00-.871 1.282 12.26 12.26 0 00-.77 1.538c-.478 1.208-.717 2.364-.717 3.47 0 1.105.399 1.657 1.196 1.657zm9.536 13.125a5.43 5.43 0 01-.341-1.965c0-.718.085-1.396.256-2.034.182-.65.439-1.276.769-1.88.33-.603.723-1.173 1.179-1.709a8.432 8.432 0 011.521-1.401c1.208-.877 2.472-1.316 3.794-1.316 2.017 0 3.355.877 4.016 2.632a5.57 5.57 0 01.342 1.982c0 .718-.091 1.396-.273 2.034a8.926 8.926 0 01-.735 1.863 9.464 9.464 0 01-1.162 1.709c-.445.524-.94.985-1.487 1.384-1.185.866-2.416 1.299-3.692 1.299-2.153 0-3.549-.866-4.187-2.598zm4.136.718c.593 0 1.219-.427 1.88-1.282.968-1.23 1.641-2.74 2.017-4.528.113-.547.17-.997.17-1.35 0-.354-.017-.639-.051-.855a1.84 1.84 0 00-.154-.598c-.193-.353-.467-.53-.82-.53-.353 0-.678.108-.974.325-.296.205-.598.495-.906.871a9.957 9.957 0 00-.871 1.282c-.285.478-.542.991-.769 1.538-.479 1.208-.718 2.364-.718 3.47 0 1.104.399 1.657 1.196 1.657z" fill="#FF689E"/></svg>