<svg width="158" height="90" fill="none" xmlns="http://www.w3.org/2000/svg"><mask id="a" maskUnits="userSpaceOnUse" x="50" y="0" width="90" height="90"><path d="M138.944 45.114c3.954 14.564-3.488 24.043-17.442 35.37-5.116 4.393-19.628 12.253-36.744 8.554-21.395-4.623-12.79-14.564-28.14-28.435-15.348-13.87-1.394-46.699 15.35-53.865 16.744-7.167 36.279-10.635 49.534 0 13.256 10.634 13.489 23.811 17.442 38.376z" fill="#F4F9FC"/></mask><g mask="url(#a)"><path d="M138.944 45.114c3.954 14.564-3.488 24.043-17.442 35.37-5.116 4.393-19.628 12.253-36.744 8.554-21.395-4.623-12.79-14.564-28.14-28.435-15.348-13.87-1.394-46.699 15.35-53.865 16.744-7.167 36.279-10.635 49.534 0 13.256 10.634 13.489 23.811 17.442 38.376z" fill="#F4FBFF"/></g><mask id="b" maskUnits="userSpaceOnUse" x="32" y="0" width="90" height="90"><path d="M120.944 45.114c3.954 14.564-3.488 24.043-17.442 35.37-5.116 4.393-19.627 12.253-36.744 8.554-21.395-4.623-12.79-14.564-28.14-28.435-15.348-13.87-1.394-46.699 15.35-53.865 16.744-7.167 36.279-10.635 49.534 0 13.256 10.634 13.489 23.811 17.442 38.376z" fill="#F4F9FC"/></mask><g mask="url(#b)"><path d="M120.944 45.114c3.954 14.564-3.488 24.043-17.442 35.37-5.116 4.393-19.627 12.253-36.744 8.554-21.395-4.623-12.79-14.564-28.14-28.435-15.348-13.87-1.394-46.699 15.35-53.865 16.744-7.167 36.279-10.635 49.534 0 13.256 10.634 13.489 23.811 17.442 38.376z" fill="#F4FBFF"/></g><path d="M113.457 47.707c-1.076 0-1.614-.415-1.614-1.246 0-.755.274-1.463.821-2.124.982-1.19 1.746-1.765 2.294-1.728h13.084c.831 0 1.246.378 1.246 1.133 0 .793-.274 1.52-.821 2.18-.963 1.19-1.794 1.785-2.492 1.785h-12.518zm14.793 12.8c-.83 0-1.246-.547-1.246-1.642 0-1.208.52-2.114 1.558-2.718l19.683-11.47-20.221-11.753c-.661-.378-.991-.765-.991-1.161 0-.416.066-.737.198-.963a2.402 2.402 0 012.124-1.218c.604 0 1.133.132 1.586.396l22.854 12.603c1.53.906 2.294 1.614 2.294 2.124s-.576 1.067-1.727 1.671l-25.12 13.849c-.359.188-.689.283-.992.283z" fill="#AAF0D1"/><path d="M17.177 73.38c-3.936 0-6.932-1.218-8.989-3.655-2.03-2.463-3.046-6.056-3.046-10.779V57.69c0-3.073.52-6.615 1.561-10.627 1.067-4.011 2.31-7.591 3.732-10.74a56.916 56.916 0 015.028-8.874c1.93-2.742 4.037-5.129 6.322-7.16 4.926-4.342 10.017-6.513 15.273-6.513 5.56 0 9.166 2.717 10.816 8.15.559 1.829.838 3.568.838 5.219 0 1.65-.089 3.541-.267 5.674-.152 2.108-.672 4.875-1.561 8.303a59.454 59.454 0 01-3.504 9.826 58.536 58.536 0 01-5.028 8.798c-1.878 2.742-3.948 5.129-6.207 7.16-4.85 4.317-9.84 6.475-14.968 6.475zm23.956-48.292c0-4.24-1.613-6.36-4.837-6.36-3.047 0-6.411 2.323-10.093 6.97-3.428 4.366-6.424 9.8-8.988 16.3-2.666 6.754-4.202 13.013-4.609 18.776-.152 2.387.19 4.266 1.029 5.637.838 1.346 1.98 2.019 3.428 2.019a8.265 8.265 0 004.15-1.105c1.296-.761 2.59-1.803 3.886-3.123 1.32-1.32 2.602-2.869 3.846-4.646a67.01 67.01 0 003.58-5.828 72.519 72.519 0 003.162-6.626 80.61 80.61 0 002.628-7.008c1.878-5.916 2.818-10.664 2.818-14.244v-.762zm25.06 25.25c-.99 0-1.485-.38-1.485-1.142 0-1.777.622-3.288 1.866-4.532.407-.406 1.194-.774 2.362-1.104 1.193-.356 2.716-1.08 4.57-2.171a24.49 24.49 0 005.103-4.037c3.428-3.58 5.142-7.656 5.142-12.226 0-1.98-.495-3.53-1.485-4.646-.99-1.143-2.247-1.714-3.77-1.714-1.524 0-2.92.33-4.19.99a11.98 11.98 0 00-3.276 2.437c-2.006 2.082-3.008 4.253-3.008 6.513 0 2.133.609 3.453 1.828 3.961.507.228.761.559.761.99 0 .914-.444 1.752-1.333 2.514-1.65 1.422-3.047 2.133-4.19 2.133-1.142 0-2.068-.178-2.78-.534a5.429 5.429 0 01-1.828-1.485c-.99-1.32-1.485-2.83-1.485-4.532 0-1.701.229-3.225.686-4.57a18.013 18.013 0 011.904-3.923 21.31 21.31 0 013.009-3.657 23.44 23.44 0 013.96-3.046c3.098-1.88 6.12-2.819 9.065-2.819 2.97 0 5.281.381 6.932 1.143 1.676.762 3.021 1.752 4.037 2.97 1.879 2.26 2.818 5.231 2.818 8.913 0 5.992-2.742 11.59-8.226 16.796-2.032 1.93-3.987 3.364-5.866 4.303 2.184.66 3.682 2.463 4.495 5.409.254.913.38 1.967.38 3.16 0 1.169-.215 2.438-.647 3.81a18.217 18.217 0 01-1.828 3.998 19.044 19.044 0 01-2.895 3.58 20.895 20.895 0 01-3.846 2.895c-3.073 1.777-6.399 2.666-9.979 2.666-3.681 0-6.55-.965-8.607-2.895-1.778-1.65-2.666-3.656-2.666-6.017 0-1.854.584-3.555 1.752-5.104 1.396-1.777 3.212-2.666 5.446-2.666 1.244 0 2.133.267 2.666.8.94.94 1.168 1.688.685 2.247a40.641 40.641 0 00-1.218 1.485 8.32 8.32 0 00-.838 1.334c-.457.863-.686 1.65-.686 2.36 0 .712.064 1.283.19 1.715.128.406.33.774.61 1.104.66.737 1.676 1.105 3.047 1.105 1.371 0 2.704-.432 3.999-1.295 1.32-.864 2.476-1.968 3.466-3.314 2.107-2.869 3.16-5.954 3.16-9.255 0-3.326-1.384-4.989-4.151-4.989l-3.657.343z" fill="#FF689E"/></svg>