<svg width="145" height="110" fill="none" xmlns="http://www.w3.org/2000/svg"><path d="M143.71 55.14c4.832 17.8-4.264 29.385-21.318 43.23-6.253 5.369-23.99 14.976-44.91 10.455-26.15-5.651-15.633-17.801-34.392-34.755-18.76-16.953-1.706-57.076 18.76-65.835 20.464-8.76 44.34-12.998 60.542 0 16.201 12.997 16.486 29.103 21.318 46.904z" fill="#F4FBFF"/><path d="M6.376 99.514c2.728 5.257 7.132 5.635 10.882 6.789.26.08.542-.057.621-.318 1.629-5.354-.776-11.87-4.81-14.925-3.26-2.235-7.555-2.044-8.877-1.922a.446.446 0 00-.41.453c.01 1.276.24 5.385 2.594 9.923z" fill="#AAF0D1"/><path d="M12.887 94.722c-.82 5.741 1.908 8.283 3.875 11.096.175.25.53.299.747.086 3.802-3.73 5.469-10.394 4.286-14.976-1.053-3.435-3.953-5.418-4.999-6.038a.442.442 0 00-.612.157c-.664 1.118-2.586 4.694-3.297 9.675z" fill="#FFC7DB"/><path d="M24.285 100.552c-1.561 3.974-4.362 4.646-6.765 5.717-.268.12-.587-.005-.674-.285-1.192-3.808.143-8.676 2.66-11.185 1.966-1.788 4.635-2.037 5.661-2.063a.436.436 0 01.451.428c.038 1.066-.007 4.01-1.333 7.388zm25.823-54.299l-5.2-7.837a1 1 0 01.125-1.258l3.09-3.106a1 1 0 011.61.272l4.463 9.288a1 1 0 01-.326 1.25l-2.353 1.656a1 1 0 01-1.409-.265zm5.337-.754l-4.383 3.028a1 1 0 00-.287 1.34l4.443 7.335a1 1 0 001.361.345l3.092-1.813a1 1 0 00.433-1.208l-3.152-8.55a1 1 0 00-1.507-.477zm4.645 11.595l-4.364 2.466a1 1 0 00-.43 1.258l3.54 8.405a1 1 0 001.317.53l3.69-1.589a1 1 0 00.56-1.214l-2.866-9.28a1 1 0 00-1.448-.576zm5.378 11.914l-6.458 2.36a1 1 0 00-.592 1.292l3.585 9.496a1 1 0 001.235.601l4.497-1.412a1 1 0 00.688-1.108L66.8 69.793a1 1 0 00-1.331-.785zm3.504 13.209l-6.843 2.092a1 1 0 00-.663 1.252l2.93 9.485a1 1 0 001.174.681l5.208-1.163a1 1 0 00.775-1.1L70.257 83.05a1 1 0 00-1.285-.832zm3.03 13.203l-8.277 1.847a1 1 0 00-.753 1.218l2.653 10.659a1 1 0 001.075.753l5.625-.595a1 1 0 00.895-.995V96.395a1 1 0 00-1.218-.976z" fill="#FF689E"/><path d="M15.4 36.712c2.06-3.845 8.163-10.545 17.102-9.764-1.684-.39-5.441-1.172-6.996-1.172-1.944 0-2.72 0-7.385 1.953-3.653 1.529-12.826 6.888-16.532 9.079a.466.466 0 01-.642-.648c.927-1.503 2.576-4.064 5.125-7.65 7.774-10.935 12.049-12.107 16.713-13.669 3.401-1.14 8.784 1.096 11.672 2.684a.516.516 0 00.766-.445v-1.458c0-8.983 2.721-9.373 5.83-12.498C43.358.81 49.288.21 52.207.054c.496-.026.702.608.297.897-2.692 1.924-8.478 6.4-9.506 9.985-.885 3.088-.604 5.159-.309 6.212.105.373.55.395.741.059.896-1.571 2.946-5.159 3.844-6.662 1.166-1.953 4.275-7.811 17.49-8.983 8.898-.789 17.868 2.24 22.881 4.615.501.238.264.944-.287.886-16.05-1.685-27.617 5.432-32.205 10.762-.345.4.102.882.564.626 5.774-3.21 9.02-3.112 16.433-2.048 6.605.948 14.482 11.358 17.248 15.296.292.416-.153.922-.61.699-2.564-1.251-7.509-3.637-10.03-4.67-18.658-8.591-30.707 2.735-35.371 6.64-5.544 4.64-7.317 9.148-8.163 16.794-.675 6.104-.373 14.954.65 20.674.097.535-.635.876-.958.44-6.377-8.607-9.409-16.331-9.409-21.114 0-3.497 2.061-8.808 3.876-12.347.248-.483-.344-1.01-.774-.68-10.597 8.14-15.173 18.635-16.611 24.95-.125.55-1.004.573-1.102.018-1.505-8.482-.378-17.28 4.505-26.391z" fill="#AAF0D1"/><path d="M103.281 69.717l2.88-4.341a1 1 0 00-.124-1.259l-1.352-1.358a1 1 0 00-1.61.273l-2.433 5.063c-.211.44-.073.97.326 1.251l.904.636a1 1 0 001.409-.265zm-3.163.119l2.064 1.425a1 1 0 01.287 1.341l-2.414 3.984a1 1 0 01-1.36.345l-1.353-.793a1 1 0 01-.433-1.208l1.702-4.617a1 1 0 011.507-.477zm-2.905 7.224l2.044 1.156a1 1 0 01.43 1.259l-1.945 4.617a1 1 0 01-1.317.53l-1.661-.715a1 1 0 01-.56-1.213l1.562-5.058a1 1 0 011.447-.575zm-3.349 7.4l3.269 1.194a1 1 0 01.592 1.292l-1.99 5.273a1 1 0 01-1.235.6l-2.178-.683a1 1 0 01-.688-1.108l.899-5.783a1 1 0 011.331-.785zm-2.2 8.256l3.51 1.073a1 1 0 01.662 1.251l-1.625 5.262a1 1 0 01-1.173.681l-2.6-.58a1 1 0 01-.774-1.1l.716-5.754a1 1 0 011.284-.833zm-1.869 8.25l4.362.974a1 1 0 01.753 1.218l-1.492 5.998a1 1 0 01-1.076.753l-2.87-.304a1 1 0 01-.895-.994v-6.669a1 1 0 011.218-.976z" fill="#FF689E"/><path d="M100.84 43.77c2.503.792 7.149 3.673 7.699 9.09.04-1.048.076-3.376-.1-4.303-.219-1.158-.307-1.622-1.988-4.181-1.205-1.837-4.831-6.071-6.749-8.277-.334-.385.04-.928.515-.738 1.019.409 2.49 1.03 4.41 1.92 7.337 3.398 8.512 5.814 9.962 8.418.999 1.793.419 4.981-.163 6.931-.111.373.209.744.59.671l.518-.1c5.304-1.015 5.843.563 8.039 2.063 1.499 1.024 2.487 4.046 2.963 5.863.121.462-.416.784-.784.48-1.609-1.333-4.605-3.666-6.571-4.3-1.782-.576-3.519.103-4.547.674-.38.21-.259.722.169.792 1.53.247 4.195.707 5.092 1.038 1.285.474 5.095 1.665 7.282 9.411 1.324 4.692.831 9.768.11 13.11-.117.544-.847.46-.914-.09-1.043-8.537-5.689-14.095-9.174-16.461-.436-.297-.815.194-.495.614 2.07 2.72 2.35 4.7 2.545 8.908.173 3.745-4.319 9.056-6.584 11.486-.346.372-.924.04-.794-.451.468-1.757 1.153-4.398 1.437-5.815 2.964-12.094-5.087-17.996-7.919-20.335-3.368-2.78-6.23-3.328-10.84-2.967-3.36.263-7.977 1.269-11.238 2.399-.513.177-.99-.497-.616-.89 4.128-4.341 8.071-6.788 10.755-7.302 1.803-.345 4.599.09 6.807.66.525.135.933-.56.518-.908-5.252-4.42-10.934-6.011-14.738-6.38-.56-.053-.737-.944-.203-1.12 4.546-1.504 9.514-1.651 15.006.09z" fill="#AAF0D1"/></svg>