<svg width="145" height="110" fill="none" xmlns="http://www.w3.org/2000/svg"><path d="M143.71 55.14c4.832 17.8-4.264 29.385-21.318 43.23-6.253 5.369-23.99 14.976-44.91 10.455-26.15-5.651-15.633-17.801-34.392-34.755-18.76-16.953-1.706-57.076 18.76-65.835 20.464-8.76 44.34-12.998 60.542 0 16.201 12.997 16.486 29.103 21.318 46.904z" fill="#F4FBFF"/><mask id="a" maskUnits="userSpaceOnUse" x="0" y="10" width="94" height="94"><circle cx="47" cy="57" r="47" fill="#AAF0D1"/></mask><g mask="url(#a)"><circle cx="48.715" cy="58.715" r="50.774" fill="#AAF0D1"/><path d="M76.533 26.836c-3.431-2.744-4.46-7.89-3.774-10.978C84.766 18.26 95.401 39.53 97.117 52.223c1.715 12.694-5.146 27.789-8.234 33.62-2.47 4.666-9.263 9.72-12.35 11.665.686.915 1.44 1.99-1.03-1.03-3.087-3.773 3.088-12.35 3.774-14.751.686-2.402 14.066-13.38 3.088-16.81-10.978-3.431-10.292-7.548-13.38-14.752-3.087-7.204 7.548-13.38 7.89-14.066.344-.686 3.088-6.518-.342-9.263zm-37.051-2.058c20.927-1.715 19.211-10.635 19.897-14.066-1.372-.572-5.626-1.784-11.664-2.058-7.547-.343-16.81 2.744-24.015 6.175-7.204 3.43-13.722 12.694-17.153 15.438C3.117 33.011.372 45.705.715 47.077c.343 1.373 10.635 8.92 15.781 12.694 5.146 3.773.686 8.576 1.03 14.408.343 5.832 7.89 9.606 9.262 14.41 1.098 3.841-2.058 8.69-3.774 10.634 4.003 1.487 12.076 4.323 12.35 3.774.344-.686 0-5.832 12.694-8.577 12.694-2.744 13.723-7.547 14.409-13.38.686-5.831-9.949-7.547-14.409-9.948-4.46-2.402-3.43-7.204-5.832-9.606-7.92-7.92-11.664-5.49-17.153-6.175-5.49-.686-8.577-7.548-8.92-8.92-1.176-4.706 3.774-8.233-1.372-8.92-5.146-.686 2.401-16.467 6.175-6.175 3.02 8.234 5.832 7.548 6.861 6.175 3.774-5.832 3.431-12.018 11.665-12.693z" fill="#FFC7DB"/><circle cx="35" cy="78" r="6" fill="#FF689E"/></g></svg>